####
#
# OBJ File Generated by Meshlab
#
####
# Object base_c.obj
#
# Vertices: 44
# Faces: 84
#
####
vn 2.911526 3.100204 -0.358208
v 0.014500 0.043000 -0.002000
vn 1.110720 -2.356195 -2.681517
v 0.011500 -0.000000 -0.017250
vn -2.736662 1.558045 -2.653869
v -0.014500 0.039772 -0.011018
vn 2.681517 -2.356195 1.110721
v 0.014500 -0.000000 0.014250
vn -2.681517 -2.356195 -1.110721
v -0.014500 -0.000000 -0.014250
vn 3.069929 0.889737 -3.009526
v 0.014500 0.038440 -0.011472
vn -2.736662 1.558045 2.653869
v -0.014500 0.039772 0.011018
vn -2.023580 0.549080 -5.240517
v -0.011500 0.016500 -0.017250
vn -1.110722 -2.356195 2.681519
v -0.011500 -0.000000 0.017250
vn 2.736665 2.477549 -1.825454
v 0.014500 0.040818 -0.010076
vn 2.681517 -2.356194 -1.110721
v 0.014500 -0.000000 -0.014250
vn -2.911526 3.100204 -0.358208
v -0.014500 0.043000 -0.002000
vn 2.736662 1.558045 2.653869
v 0.014500 0.039772 0.011018
vn -5.295307 0.147996 -2.279652
v -0.014500 0.016500 -0.014250
vn -1.110720 -2.356195 -2.681517
v -0.011500 -0.000000 -0.017250
vn 2.023580 0.549080 -5.240516
v 0.011500 0.016500 -0.017250
vn -3.069929 0.889737 -3.009526
v -0.014500 0.038440 -0.011472
vn -2.681518 -2.356195 1.110721
v -0.014500 -0.000000 0.014250
vn -2.023580 0.549080 5.240517
v -0.011500 0.016500 0.017250
vn 2.736662 1.558045 -2.653869
v 0.014500 0.039772 -0.011018
vn -2.939125 2.955544 -1.016644
v -0.014500 0.041408 -0.008798
vn 2.939125 2.955544 1.016644
v 0.014500 0.041408 0.008798
vn -4.442879 0.000000 -4.442886
v -0.011750 0.014500 -0.017000
vn 4.442879 0.000000 -4.442886
v 0.011750 0.014500 -0.017000
vn 5.295307 0.147996 -2.279652
v 0.014500 0.016500 -0.014250
vn -4.442880 -0.000000 4.442887
v -0.011750 0.002000 0.017000
vn -5.295306 0.147996 2.279652
v -0.014500 0.016500 0.014250
vn 3.069929 0.889737 3.009526
v 0.014500 0.038440 0.011472
vn -2.736665 2.477549 -1.825454
v -0.014500 0.040818 -0.010076
vn 2.939125 2.955544 -1.016644
v 0.014500 0.041408 -0.008798
vn -2.939125 2.955544 1.016644
v -0.014500 0.041408 0.008798
vn -4.442880 -0.000000 -4.442887
v -0.011750 0.002000 -0.017000
vn 4.442880 -0.000000 -4.442886
v 0.011750 0.002000 -0.017000
vn -3.069928 0.889737 3.009526
v -0.014500 0.038440 0.011472
vn -4.442881 0.000000 4.442888
v -0.011750 0.014500 0.017000
vn 1.110720 -2.356194 2.681517
v 0.011500 -0.000000 0.017250
vn 2.023580 0.549080 5.240516
v 0.011500 0.016500 0.017250
vn 2.911526 3.100204 0.358208
v 0.014500 0.043000 0.002000
vn 2.736665 2.477549 1.825454
v 0.014500 0.040818 0.010076
vn 5.295298 0.147996 2.279652
v 0.014500 0.016500 0.014250
vn -2.911526 3.100204 0.358208
v -0.014500 0.043000 0.002000
vn -2.736667 2.477549 1.825454
v -0.014500 0.040818 0.010076
vn 4.442879 0.000000 4.442886
v 0.011750 0.014500 0.017000
vn 4.442880 -0.000000 4.442887
v 0.011750 0.002000 0.017000
# 44 vertices, 0 vertices normals

f 16//16 2//2 15//15
f 16//16 15//15 8//8
f 17//17 3//3 6//6
f 17//17 8//8 14//14
f 17//17 16//16 8//8
f 17//17 6//6 16//16
f 20//20 6//6 3//3
f 23//23 14//14 8//8
f 25//25 16//16 6//6
f 25//25 24//24 16//16
f 26//26 18//18 9//9
f 29//29 20//20 3//3
f 29//29 10//10 20//20
f 30//30 21//21 12//12
f 30//30 29//29 21//21
f 30//30 12//12 1//1
f 30//30 10//10 29//29
f 32//32 15//15 5//5
f 32//32 14//14 23//23
f 32//32 23//23 8//8
f 32//32 8//8 15//15
f 32//32 5//5 14//14
f 33//33 11//11 2//2
f 33//33 25//25 11//11
f 33//33 24//24 25//25
f 33//33 16//16 24//24
f 33//33 2//2 16//16
f 34//34 27//27 19//19
f 34//34 13//13 7//7
f 34//34 28//28 13//13
f 35//35 19//19 27//27
f 35//35 27//27 18//18
f 35//35 18//18 26//26
f 35//35 26//26 9//9
f 35//35 9//9 19//19
f 36//36 9//9 18//18
f 36//36 11//11 4//4
f 36//36 2//2 11//11
f 36//36 15//15 2//2
f 36//36 18//18 5//5
f 36//36 5//5 15//15
f 37//37 34//34 19//19
f 37//37 28//28 34//34
f 37//37 19//19 9//9
f 37//37 9//9 36//36
f 40//40 28//28 37//37
f 40//40 4//4 11//11
f 40//40 39//39 13//13
f 40//40 13//13 28//28
f 40//40 11//11 25//25
f 40//40 25//25 6//6
f 40//40 6//6 20//20
f 40//40 20//20 10//10
f 40//40 10//10 30//30
f 40//40 30//30 1//1
f 40//40 1//1 38//38
f 40//40 38//38 22//22
f 40//40 22//22 39//39
f 41//41 38//38 1//1
f 41//41 1//1 12//12
f 41//41 31//31 22//22
f 41//41 22//22 38//38
f 42//42 39//39 22//22
f 42//42 31//31 41//41
f 42//42 22//22 31//31
f 42//42 7//7 13//13
f 42//42 34//34 7//7
f 42//42 13//13 39//39
f 42//42 27//27 34//34
f 42//42 18//18 27//27
f 42//42 5//5 18//18
f 42//42 14//14 5//5
f 42//42 17//17 14//14
f 42//42 3//3 17//17
f 42//42 29//29 3//3
f 42//42 21//21 29//29
f 42//42 41//41 12//12
f 42//42 12//12 21//21
f 43//43 40//40 37//37
f 44//44 36//36 4//4
f 44//44 40//40 43//43
f 44//44 43//43 37//37
f 44//44 37//37 36//36
f 44//44 4//4 40//40
# 84 faces, 0 coords texture

# End of File
